# AST/ASF file generated using VICON BodyLanguage
# -----------------------------------------------
:version 1.10
:name VICON
:units
  mass 1.0
  length 0.45
  angle deg
:documentation
   .ast/.asf automatically generated from VICON data using
   VICON BodyBuilder and BodyLanguage model FoxedUp or BRILLIANT.MOD
:root
   order TX TY TZ RX RY RZ
   axis XYZ
   position 0 0 0  
   orientation 0 0 0 
:bonedata
  begin
     id 1 
     name lhipjoint
     direction 0.653368 -0.678499 0.335782 
     length 2.51848 
     axis 0 0 0  XYZ
  end
  begin
     id 2 
     name lfemur
     direction 0.34202 -0.939693 0  
     length 6.57749  
     axis 0 0 20  XYZ
    dof rx ry rz
    limits (-160.0 20.0)
           (-70.0 70.0)
           (-60.0 70.0)
  end
  begin
     id 3 
     name ltibia
     direction 0.34202 -0.939693 0   
     length 7.94618   
     axis 0 0 20   XYZ
    dof rx
    limits (-10.0 170.0)
  end
  begin
     id 4 
     name lfoot
     direction 0.0811271 -0.222895 0.971461   
     length 2.31339   
     axis -90 7.62852e-016 20   XYZ
    dof rx rz
    limits (-45.0 90.0)
           (-70.0 20.0)
  end
  begin
     id 5 
     name ltoes
     direction 1.53568e-011 -4.21885e-011 1   
     length 1.15935   
     axis -90 7.62852e-016 20   XYZ
    dof rx
    limits (-90.0 20.0)
  end
  begin
     id 6 
     name rhipjoint
     direction -0.640058 -0.688614 0.340788   
     length 2.48149  
     axis 0 0 0  XYZ 
  end
  begin
     id 7 
     name rfemur
     direction -0.34202 -0.939693 0   
     length 6.57875   
     axis 0 0 -20   XYZ
    dof rx ry rz
    limits (-160.0 20.0)
           (-70.0 70.0)
           (-70.0 60.0)
  end
  begin
     id 8 
     name rtibia
     direction -0.34202 -0.939693 0   
     length 7.977   
     axis 0 0 -20   XYZ
    dof rx
    limits (-10.0 170.0)
 end
 begin
     id 9 
     name rfoot
     direction -0.0979793 -0.269196 0.958089   
     length 2.19857  
     axis -90 -7.62852e-016 -20   XYZ
    dof rx rz
    limits (-45.0 90.0)
           (-20.0 70.0)
  end
  begin
     id 10 
     name rtoes
     direction -1.53556e-011 -4.21868e-011 1   
     length 1.09838   
     axis -90 -7.62852e-016 -20   XYZ
    dof rx
    limits (-90.0 20.0)
  end
  begin
     id 11 
     name lowerback
     direction 0.0149039 0.998517 -0.0523597   
     length 2.10809   
     axis 0 0 0   XYZ
    dof rx ry rz
    limits (-20.0 45.0)
           (-30.0 30.0)
           (-30.0 30.0)
  end
  begin
     id 12 
     name upperback
     direction -0.00882659 0.999418 -0.0329624   
     length 2.1102   
     axis 0 0 0   XYZ
    dof rx ry rz
    limits (-20.0 45.0)
           (-30.0 30.0)
           (-30.0 30.0)
  end
  begin
     id 13 
     name thorax
     direction -0.0165585 0.999826 -0.0085833   
     length 2.11039   
     axis 0 0 0   XYZ
    dof rx ry rz
    limits (-20.0 45.0)
           (-30.0 30.0)
           (-30.0 30.0)
  end
  begin
     id 14 
     name lowerneck
     direction -0.0130877 0.999911 0.00260353   
     length 1.73253   
     axis 0 0 0   XYZ
    dof rx ry rz
    limits (-20.0 45.0)
           (-30.0 30.0)
           (-30.0 30.0)
  end
  begin
     id 15 
     name upperneck
     direction -0.0348454 0.928205 -0.370435   
     length 1.66692   
     axis 0 0 0   XYZ
    dof rx ry rz
    limits (-20.0 45.0)
           (-30.0 30.0)
           (-30.0 30.0)
  end
  begin
     id 16
     name head
     direction -0.00807754 0.992494 -0.122026  
     length 1.72765  
     axis 0 0 0   XYZ
    dof rx ry rz
    limits (-20.0 45.0)
           (-30.0 30.0)
           (-30.0 30.0)
  end
  begin
     id 17 
     name lclavicle
     direction 0.987582 0.144023 0.0627671  
     length 3.49235  
     axis 0 0 0   XYZ
    dof ry rz
    limits (-20.0 10.0)
           (0.0 20.0)
  end
  begin
     id 18 
     name lhumerus
     direction 1 -4.48958e-011 -1.45183e-018   
     length 5.41917   
     axis 180 -30 -90   XYZ
    dof rx ry rz
    limits (-60.0 90.0)
           (-90.0 90.0)
           (-90.0 90.0)
  end
  begin
     id 19
     name lradius
     direction 1 -4.48999e-011 5.75106e-027   
     length 2.44373   
     axis 180 -30 -90   XYZ
    dof rx
    limits (-10.0 170.0)
  end
  begin
     id 20
     name lwrist
     direction 1 -4.48987e-011 1.53461e-026   
     length 1.22186   
     axis -1.09697e-014 90 90   XYZ
    dof ry
    limits (-180.0 0.0)
 end
  begin
     id 21 
     name lhand
     direction 1 -4.48881e-011 3.06923e-026   
     length 0.727502   
     axis -1.95843e-014 90 90   XYZ
    dof rx rz
    limits (-90.0 90.0)
           (-45.0 45.0)
  end
  begin
     id 22 
     name lfingers
     direction 1 -4.48907e-011 6.13845e-026   
     length 0.586531   
     axis -3.91686e-014 90 90   XYZ
    dof rx
    limits (0.0 90.0)
  end
  begin
     id 23
     name lthumb
     direction 0.707107 -6.3487e-011 0.707107   
     length 0.842145   
     axis -90 45 2.85299e-015   XYZ
    dof rx rz
    limits (-45.0 45.0)
           (-45.0 45.0)
  end
  begin
     id 24 
     name rclavicle
     direction -0.980998 0.169556 0.0943023   
     length 3.29272  
     axis 0 0 0   XYZ 
    dof ry rz
    limits (-10.0 20.0)
           (-20.0 0.0)
  end
  begin
     id 25 
     name rhumerus
     direction -1 -1.83355e-005 2.45537e-005  
     length 5.58976   
     axis 180 30 90   XYZ
    dof rx ry rz
    limits (-90.0 60.0)
           (-90.0 90.0)
           (-90.0 90.0)
  end
  begin
     id 26 
     name rradius
     direction -1 -4.48967e-011 5.97228e-027   
     length 2.4806   
     axis 180 30 90   XYZ
    dof rx
    limits (-10.0 170.0)
  end
  begin
     id 27 
     name rwrist
     direction -1 -4.48963e-011 1.53461e-026   
     length 1.2403   
     axis -1.09697e-014 -90 -90   XYZ
    dof ry
    limits (-180.0 0.0)
  end
  begin
     id 28
     name rhand
     direction -1 -4.48881e-011 3.06923e-026   
     length 0.816009   
     axis -1.95843e-014 -90 -90   XYZ
    dof rx rz
    limits (-90.0 90.0)
           (-45.0 45.0)
  end
  begin
     id 29
     name rfingers
     direction -1 -4.49018e-011 6.13845e-026   
     length 0.657887   
     axis -3.91686e-014 -90 -90   XYZ
    dof rx
    limits (0.0 90.0)
  end
  begin
     id 30
     name rthumb
     direction -0.707107 -6.34872e-011 0.707107   
     length 0.944599   
     axis -90 -45 -2.85299e-015   XYZ
    dof rx rz
    limits (-45.0 45.0)
           (-45.0 45.0)
  end
:hierarchy
  begin
    root lhipjoint rhipjoint lowerback
    lhipjoint lfemur
    lfemur ltibia
    ltibia lfoot
    lfoot ltoes
    rhipjoint rfemur
    rfemur rtibia
    rtibia rfoot
    rfoot rtoes
    lowerback upperback
    upperback thorax
    thorax lowerneck lclavicle rclavicle
    lowerneck upperneck
    upperneck head
    lclavicle lhumerus
    lhumerus lradius
    lradius lwrist
    lwrist lhand lthumb
    lhand lfingers
    rclavicle rhumerus
    rhumerus rradius
    rradius rwrist
    rwrist rhand rthumb
    rhand rfingers
  end

#!OML:ASF F:\VICON\USERDATA\INSTALL\rory3\rory3.ASF
:FULLY-SPECIFIED
:DEGREES
137
root 2.24222 16.6673 12.3159 21.8692 -0.668713 3.71931
lowerback -7.42122 -0.6712 -3.46357
upperback -5.76399 -0.726515 -2.01317
thorax -1.78747 -0.297467 -0.17606
lowerneck -20.9707 -2.10098 -3.27277
upperneck 33.1007 -3.06365 3.2242
head 15.1982 -1.2482 1.33804
rclavicle 1.09829e-014 -1.98785e-015
rhumerus -41.7468 -5.17246 -73.913
rradius 38.0072
rwrist -16.9415
rhand -14.2498 15.8703
rfingers 7.12502
rthumb 11.8883 -13.7722
lclavicle 1.09829e-014 -1.98785e-015
lhumerus -47.9398 10.3254 68.1026
lradius 53.6406
lwrist 4.09312
lhand -12.9983 19.3257
lfingers 7.12502
lthumb 13.0948 48.8946
rfemur -57.8376 4.38204 22.8327
rtibia 41.8797
rfoot -29.4555 -33.8811
rtoes 44.2043
lfemur -17.4621 -2.3842 -34.532
ltibia 32.9736
lfoot -23.9074 20.2643
ltoes -19.3682
138
root 2.25726 16.6797 12.2673 22.0283 -0.819991 3.76838
lowerback -7.53669 -0.680999 -3.47672
upperback -5.66579 -0.729369 -2.01124
thorax -1.62121 -0.301403 -0.168324
lowerneck -20.9634 -2.12408 -3.33394
upperneck 32.7695 -3.01267 3.08838
head 15.0379 -1.25487 1.29689
rclavicle -5.96354e-016 -4.77083e-015
rhumerus -41.5619 -4.98716 -74.1844
rradius 37.605
rwrist -16.8462
rhand -14.5261 16.069
rfingers 7.12502
rthumb 11.6218 -13.5887
lclavicle -5.96354e-016 -4.77083e-015
lhumerus -47.7989 10.5669 68.3174
lradius 53.295
lwrist 3.74277
lhand -13.1198 19.0408
lfingers 7.12502
lthumb 12.9777 48.6171
rfemur -58.2793 4.12542 22.8395
rtibia 41.8291
rfoot -28.106 -34.3238
rtoes 43.5702
lfemur -17.6866 -2.68406 -34.661
ltibia 32.6607
lfoot -23.8708 20.5968
ltoes -19.2712
139
root 2.25653 16.6872 12.1876 22.0859 -1.18149 3.69607
lowerback -7.079 -0.579535 -3.59111
upperback -5.66606 -0.612925 -2.01858
thorax -1.87641 -0.236537 -0.100942
lowerneck -20.9751 -2.14382 -3.29077
upperneck 32.4904 -2.9995 2.95424
head 14.9071 -1.26339 1.23239
rclavicle 5.2181e-015 1.15295e-014
rhumerus -41.4861 -4.9128 -74.4257
rradius 37.1325
rwrist -16.4222
rhand -14.1451 15.6694
rfingers 7.12502
rthumb 11.9892 -13.9672
lclavicle 5.2181e-015 1.15295e-014
lhumerus -47.6676 10.5665 68.528
lradius 52.8815
lwrist 3.62842
lhand -13.2265 18.3164
lfingers 7.12502
lthumb 12.8748 47.8993
rfemur -58.7068 5.04699 22.3733
rtibia 41.7177
rfoot -28.2675 -34.9595
rtoes 43.6392
lfemur -17.9937 -2.69833 -34.6598
ltibia 32.4015
lfoot -23.8646 20.6012
ltoes -18.7781
140
root 2.27211 16.7039 12.1248 21.9338 -1.06349 3.49799
lowerback -6.49255 -0.571236 -3.20731
upperback -5.62033 -0.648302 -1.99825
thorax -2.1543 -0.262781 -0.290996
lowerneck -21.1074 -2.12838 -3.09174
upperneck 32.3414 -2.90508 2.57346
head 14.8526 -1.25251 1.05509
rclavicle 7.55382e-015 -4.37326e-015
rhumerus -41.5049 -4.74692 -74.6299
rradius 36.6793
rwrist -15.7512
rhand -13.4036 14.6096
rfingers 7.12502
rthumb 12.7041 -14.984
lclavicle 7.55382e-015 -4.37326e-015
lhumerus -47.7983 10.2641 68.8841
lradius 52.7165
lwrist 3.64488
lhand -13.6717 18.3103
lfingers 7.12502
lthumb 12.4457 47.9197
rfemur -58.7527 4.81405 22.6576
rtibia 41.6283
rfoot -27.3458 -35.254
rtoes 42.9561
lfemur -17.8231 -2.71751 -34.4554
ltibia 32.0793
lfoot -23.7168 20.557
ltoes -19.3783
141
root 2.2952 16.7239 12.0804 21.8824 -0.854412 3.43373
lowerback -6.10488 -0.677045 -2.92736
upperback -5.70163 -0.821612 -1.92214
thorax -2.45235 -0.35385 -0.37224
lowerneck -21.0846 -2.09452 -3.07117
upperneck 32.3572 -2.73865 2.22964
head 14.8414 -1.23006 0.940315
rclavicle 3.27995e-015 3.61788e-014
rhumerus -41.674 -4.30769 -74.84
rradius 36.2297
rwrist -15.3384
rhand -13.0144 13.8871
rfingers 7.12502
rthumb 13.0794 -15.6828
lclavicle 3.27995e-015 3.61788e-014
lhumerus -48.2408 10.2017 69.2058
lradius 52.494
lwrist 3.63435
lhand -14.0927 19.0436
lfingers 7.12502
lthumb 12.0397 48.6773
rfemur -58.8637 3.80114 23.2308
rtibia 41.5661
rfoot -25.373 -35.4124
rtoes 41.8208
lfemur -17.6228 -2.8036 -34.3883
ltibia 31.7174
lfoot -23.714 20.4872
ltoes -20.0326
142
root 2.31183 16.7456 12.047 22.0481 -0.797748 3.44358
lowerback -6.29448 -0.736067 -2.81582
upperback -5.66389 -0.895196 -1.92469
thorax -2.30789 -0.396239 -0.442515
lowerneck -20.9788 -2.11309 -3.14588
upperneck 32.0776 -2.70869 2.16067
head 14.6892 -1.23769 0.928951
rclavicle -3.926e-015 -9.54166e-015
rhumerus -41.6635 -3.96489 -75.2189
rradius 35.933
rwrist -15.4929
rhand -13.0278 13.2007
rfingers 7.12502
rthumb 13.0664 -16.37
lclavicle -3.926e-015 -9.54166e-015
lhumerus -48.4071 10.1239 69.4791
lradius 52.3057
lwrist 3.72822
lhand -14.2117 19.4246
lfingers 7.12502
lthumb 11.9249 49.0649
rfemur -59.2188 3.0463 23.5968
rtibia 41.5542
rfoot -24.3393 -35.2302
rtoes 41.5136
lfemur -17.6553 -2.81867 -34.3941
ltibia 31.3491
lfoot -23.7887 20.1285
ltoes -19.271
143
root 2.32532 16.7706 12.0155 22.1634 -0.659084 3.42331
lowerback -6.71944 -0.789268 -2.61425
upperback -5.33432 -0.946087 -1.97307
thorax -1.732 -0.435521 -0.61426
lowerneck -21.3583 -2.12536 -3.14048
upperneck 31.8015 -2.7128 2.17119
head 14.6488 -1.23388 0.92734
rclavicle 5.46658e-015 -4.37326e-015
rhumerus -41.2504 -3.99398 -75.6037
rradius 35.6264
rwrist -15.4422
rhand -13.0453 12.9423
rfingers 7.12502
rthumb 13.0496 -16.6294
lclavicle 5.46658e-015 -4.37326e-015
lhumerus -48.0961 10.1388 69.6961
lradius 51.9769
lwrist 3.71446
lhand -14.2491 18.6208
lfingers 7.12502
lthumb 11.8889 48.2632
rfemur -59.4741 2.54582 23.8317
rtibia 41.527
rfoot -24.235 -35.0491
rtoes 42.4139
lfemur -17.6901 -2.86494 -34.3212
ltibia 31.0181
lfoot -23.5222 20.1071
ltoes -19.7727
